inDegrees=no
num_controls=7
num_derivatives=13
num_iterations=130
num_multipliers=7
num_parameters=0
num_slacks=7
num_states=26
objective=5.111462
objective_accelerations=0.722020
objective_balance=0.022899
objective_effort=0.233953
objective_height=4.055371
objective_ligament=0.077220
solver_duration=1502.334013
status=Solve_Succeeded
success=true
DataType=double
version=3
OpenSimVersion=4.4-2022-07-23-0e9fedc
endheader
time	/jointset/ground_pelvis/pelvis_tilt/value	/jointset/ground_pelvis/pelvis_tx/value	/jointset/ground_pelvis/pelvis_ty/value	/jointset/hip_l/hip_flexion_l/value	/jointset/hip_l/hip_adduction_l/value	/jointset/hip_l/hip_rotation_l/value	/jointset/back/lumbar_extension/value	/jointset/patellofemoral_l/patellar_flexion_l/value	/jointset/knee_l/knee_flexion_l/value	/jointset/knee_l/knee_adduction_l/value	/jointset/knee_l/knee_rotation_l/value	/jointset/ankle_l/ankle_angle_l/value	/jointset/subtalar_l/subtalar_angle_l/value	/jointset/ground_pelvis/pelvis_tilt/speed	/jointset/ground_pelvis/pelvis_tx/speed	/jointset/ground_pelvis/pelvis_ty/speed	/jointset/hip_l/hip_flexion_l/speed	/jointset/hip_l/hip_adduction_l/speed	/jointset/hip_l/hip_rotation_l/speed	/jointset/back/lumbar_extension/speed	/jointset/patellofemoral_l/patellar_flexion_l/speed	/jointset/knee_l/knee_flexion_l/speed	/jointset/knee_l/knee_adduction_l/speed	/jointset/knee_l/knee_rotation_l/speed	/jointset/ankle_l/ankle_angle_l/speed	/jointset/subtalar_l/subtalar_angle_l/speed	/forceset/tau_hip_flexion_l	/forceset/tau_hip_adduction_l	/forceset/tau_hip_rotation_l	/forceset/tau_knee_flexion_l	/forceset/tau_ankle_angle_l	/forceset/tau_subtalar_angle_l	/forceset/tau_lumbar_extension	lambda_cid13_p0	lambda_cid13_p1	lambda_cid13_p2	lambda_cid13_p3	lambda_cid13_p4	lambda_cid13_p5	lambda_cid14_p0	/jointset/ground_pelvis/pelvis_tilt/accel	/jointset/ground_pelvis/pelvis_tx/accel	/jointset/ground_pelvis/pelvis_ty/accel	/jointset/hip_l/hip_flexion_l/accel	/jointset/hip_l/hip_adduction_l/accel	/jointset/hip_l/hip_rotation_l/accel	/jointset/back/lumbar_extension/accel	/jointset/patellofemoral_l/patellar_flexion_l/accel	/jointset/knee_l/knee_flexion_l/accel	/jointset/knee_l/knee_adduction_l/accel	/jointset/knee_l/knee_rotation_l/accel	/jointset/ankle_l/ankle_angle_l/accel	/jointset/subtalar_l/subtalar_angle_l/accel	gamma_cid13_p0	gamma_cid13_p1	gamma_cid13_p2	gamma_cid13_p3	gamma_cid13_p4	gamma_cid13_p5	gamma_cid14_p0
1	-0.8435884447241537	-0.1683656312394539	0.5912601859738262	2.097022192550841	-0.3341427259903677	0.06841804323150383	-0.4363286644282779	1.120820083658713	1.120820083658317	-0.004236156344265108	-0.1745259444807306	0.0007582904996404868	0.08625139017806401	-0.16289682140647	0.009199960359370199	0.03417455725467908	0.00976888484468667	-0.008014381842626657	-0.05639849237038486	4.269621192505519e-05	-0.163826699037295	-0.1638266990373197	-0.0107334753552258	-2.933081318182962e-06	-0.02266891022851278	-0.0142464925070311	-0.3874728805326211	-0.006369229572786305	-0.005516659554799853	-0.1440418262798855	0.1293745819066771	0.01137258744160468	0.2853353008359691	10.4825897199282	-3.16092134891964	-3.90469477971859	-7.906656206220132	-551.3111165947864	-64.26659448417388	-1.045541093783479	3.144752697206305	0.7472819424463295	1.931191309401912	-7.938847575559696	-0.3168897088737009	-1.32397316041428	-0.02580326862703477	-4.129943020598611	-4.129943020598573	-0.5184970563482945	-0.02561641165868843	0.3758112179299151	-0.1947075662258934	-1.138998434342115e-08	-5.47390705330027e-08	-5.781017221688085e-10	-5.940091975823412e-11	-1.128089564237541e-08	3.553475677051383e-08	-1.455828615898468e-08
1.01	-0.8450613027798526	-0.1682363706996456	0.591698212822962	2.09672444504924	-0.3342378490603333	0.06778856947727091	-0.4363281554319126	1.118975337163545	1.118975337163066	-0.004368799814176817	-0.1745259078417734	0.0005501363598493263	0.08609998983428836	-0.1316681673683605	0.01665517599745888	0.0534144384476097	-0.06929147884034711	-0.0110014219872976	-0.06949153990221171	6.32763759408763e-05	-0.2051136930147786	-0.205113693014802	-0.01579276961111067	1.128575822363752e-05	-0.01898650373361463	-0.01603196730141659	-0.3876502869779954	-0.00610649341128762	-0.005520678940724227	-0.1431946148588643	0.1288056183727395	0.01147964063139916	0.2853746097989222	10.33070214387839	-3.207216462282491	-3.86716329634247	-7.959380134295836	-551.0102876293181	-64.18280768620197	-1.07303923440455	3.112912661115661	0.745094128701859	1.917927405830726	-7.88559758416393	-0.2882806929877698	-1.301278357920998	0.01661465562568771	-4.126737946921597	-4.126737946921344	-0.4992943727125957	0.01509818125518878	0.3607632576869318	-0.1702151294992854	-1.098479380417472e-08	-6.480037844769177e-08	-3.942302871100556e-09	-7.451567176403277e-09	-1.496159115092137e-08	4.882145393913554e-08	-1.792713926362274e-08
1.02	-0.8462216761143813	-0.1680324674526137	0.5923281466603445	2.095636900546927	-0.3343625764368929	0.06702830368598543	-0.4363273154345899	1.116717988656492	1.116717988655933	-0.004551965979208024	-0.174525697584519	0.0003780678634954437	0.08593078520387806	-0.1003998771701586	0.02412850180407946	0.07255595490411076	-0.1481905152929298	-0.01393524316090134	-0.082556899768212	0.0001088964083450173	-0.2463471014162027	-0.2463471014162251	-0.02083801436716506	3.179057753888867e-05	-0.01545178154203278	-0.01780734983398615	-0.3878276934234778	-0.005843757249935976	-0.005524698326985086	-0.1423474034378537	0.1282366548387809	0.01158669382104114	0.2854139187617495	10.17544342859321	-3.254416442093266	-3.827779399621679	-8.033071265114765	-550.7907617244337	-64.09375237417204	-1.107199326448381	3.1526799292247	0.7509039761527747	1.911518362116028	-7.906582129069509	-0.3062459146602697	-1.318435627248969	-0.02079529494968532	-4.119225905386672	-4.119225905386695	-0.5156871563822026	-0.02435921570401109	0.3462743572667862	-0.1926891138626791	-1.042721345395686e-08	-7.442852112020106e-08	-7.41196532777821e-09	-1.47667455507792e-08	-1.846719887344658e-08	6.080454367060822e-08	-2.104611957428342e-08
1.03	-0.8470691587879012	-0.1677537169801923	0.5931489238672143	2.093761313914782	-0.3345163780422959	0.06613752065977024	-0.4363260796924133	1.114048670541593	1.114048670541156	-0.004785522117126585	-0.1745253116703364	0.0002405545712534725	0.08574385815921567	-0.06909121766888819	0.0316267210332572	0.09157507503993322	-0.226884159286458	-0.01681428071369096	-0.09559404593634273	0.0001259316322526862	-0.2874984108201163	-0.2874984108200965	-0.02586967596621815	4.387147314560077e-05	-0.01208052248423414	-0.01957599405990859	-0.3874798792602051	-0.005525827551919781	-0.00551529128592363	-0.141544722994601	0.1277139560280206	0.01173466448313564	0.2851242985690574	10.05861287798091	-3.32382168726104	-3.787475669129174	-8.132344793182149	-550.1924143640352	-64.02793092848053	-1.148317526036741	3.120771064362267	0.7500456889812582	1.893442709487983	-7.844362100666968	-0.2770997572506055	-1.295525808621495	0.01110487082827282	-4.110361994983482	-4.110361994977081	-0.4963970027707083	0.0137672695726784	0.3281000316729977	-0.1686274751573381	-9.868078105667856e-09	-8.405224373921873e-08	-1.088270392024919e-08	-2.208113833451972e-08	-2.197101998591036e-08	7.277433128537528e-08	-2.416255016255657e-08
1.04	-0.8476033924456622	-0.1673998313569427	0.594159159049476	2.091100069529436	-0.3346986434395618	0.06511653183240536	-0.4363250432100357	1.110968383625248	1.110968383624942	-0.005069293139331297	-0.1745248498417142	0.0001358635399277668	0.08553930959265409	-0.03775007401626317	0.03915553196971862	0.1104475499825548	-0.3053220659268902	-0.01962800153294702	-0.1085980599855361	6.904444685157806e-05	-0.3285408617076255	-0.3285408617075634	-0.03088099120943347	4.697346392749563e-05	-0.008887329360973075	-0.02133165421385134	-0.3871320650970907	-0.005207897854057756	-0.005505884245337007	-0.1407420425513433	0.1271912572172529	0.01188263514507614	0.2848346783761753	9.938297442843782	-3.394199758601432	-3.745208324997484	-8.251375202460778	-549.6761600060366	-63.95792064714711	-1.196700954814128	3.159176759495532	0.7570223176096098	1.882189323475888	-7.85543465845036	-0.2931825679536192	-1.311809203461556	-0.03557977681176173	-4.09745420210573	-4.097454202105733	-0.51161788521467	-0.0261549966690856	0.3106611703594597	-0.1900922994667487	-9.936682776649733e-09	-9.296757576141354e-08	-1.313952095581726e-08	-2.711387436807885e-08	-2.598257317721681e-08	8.359203541571251e-08	-2.697084423877974e-08
1.05	-0.8478240145637339	-0.1669704621045419	0.5953573471500994	2.087655724274417	-0.3349087156402474	0.06396567179262461	-0.4363248218008569	1.107478229023524	1.107478229023632	-0.00540310045825863	-0.1745244270565973	6.218707270007843e-05	0.0853172644585494	-0.006367888847895084	0.04672736243324688	0.1291617846713257	-0.3835025938459113	-0.02237303276674887	-0.1215660583559566	-2.205870396812032e-05	-0.3694717251854153	-0.3694717251853648	-0.0358784667016761	3.766965605298979e-05	-0.005880305544159928	-0.02307350919963728	-0.3866064749960058	-0.004813952259607845	-0.005485850453393335	-0.1398701831929955	0.12658562347869	0.01208174738807359	0.2844905841407762	9.803806380947513	-3.487460379424018	-3.695690807882836	-8.381027847705502	-549.0063562131261	-63.9157234589427	-1.252741705810183	3.128703439432468	0.7586135343997172	1.861791678432546	-7.792708883469311	-0.2631353173250819	-1.288137066688995	0.004530000743726484	-4.088146420538426	-4.08814642054002	-0.4935387100561648	0.01169907065634946	0.2908662512797499	-0.1656343660460377	-1.002490432323382e-08	-1.018607705774576e-07	-1.535840294273213e-08	-3.207530862819482e-08	-3.00099929959871e-08	9.437373693716129e-08	-2.976950904900135e-08
1.06	-0.8477306220213521	-0.1664651045227704	0.5967418278249803	2.083430904335218	-0.3351458325365211	0.06268536338654307	-0.4363254303061494	1.103579316987043	1.10357931698757	-0.005786827797908381	-0.1745240938808509	1.760949646420521e-05	0.08507792032100465	0.02505285807747374	0.05435319784384117	0.1477060648341741	-0.4614170027585839	-0.02503694064980337	-0.1344877332406518	-9.693845635131825e-05	-0.4102923486601258	-0.4102923486600851	-0.040864995347008	2.905158829261752e-05	-0.003067551169848155	-0.02479145490188862	-0.386080884894988	-0.004420006665219738	-0.005465816661685057	-0.1389983238346609	0.1259799897401181	0.01228085963100808	0.2841464899053004	9.665650598894896	-3.581773813030737	-3.644069605711724	-8.52901443725303	-548.420370543998	-63.87061955309491	-1.316847342676764	3.166889110895537	0.7678233070229686	1.848198418291438	-7.802210857180741	-0.2769578978042502	-1.302544506316583	-0.03233509712461732	-4.075406201489799	-4.075406201489423	-0.5094285158325624	-0.02601784864643785	0.2718072818594705	-0.1853104427598447	-9.949893029774287e-09	-1.088701535446358e-07	-1.58494502370391e-08	-3.631199234589587e-08	-3.359220657142291e-08	1.033405242993871e-07	-3.213737958559143e-08
1.07	-0.8473227967724276	-0.1658831269066106	0.5983108584013617	2.078428283854254	-0.3354091844148021	0.06127607321446051	-0.4363266648821114	1.099272887861331	1.09927288786164	-0.006220358658311638	-0.1745238954761974	2.918672826724297e-07	0.08482154508605655	0.05651931898213421	0.06206021575017	0.1660673958490778	-0.5390596576288369	-0.02761663928380183	-0.1473579024163733	-0.0001403797059483711	-0.4509618621641325	-0.4509618621641092	-0.04583739597842235	1.24027461689589e-05	-0.0004173693974818535	-0.02647309258387161	-0.3852258903611866	-0.003972643648055348	-0.005431036743448906	-0.138221988475462	0.1256632924464573	0.0124671285403357	0.2836563669086182	9.634878768730069	-3.68235797062032	-3.599391651411959	-8.83638254916986	-547.6343837865589	-63.8271145401251	-1.389505092334563	3.13758761451644	0.7748164252539634	1.825194773619783	-7.738184281202767	-0.2459365394438546	-1.277422521440475	0.0110909151186885	-4.057974847535353	-4.057974847538069	-0.4906099711797099	0.01078283414455749	0.2584084818548942	-0.1579949936951382	-9.866199138440093e-09	-1.157793337538955e-07	-1.624859143067543e-08	-4.051012550283016e-08	-3.715073896370263e-08	1.122107736744203e-07	-3.448233553315855e-08
1.08	-0.8466000943076197	-0.165223544032824	0.6000625211539973	2.072650658528721	-0.3356978254180771	0.05973844747098381	-0.436328045959705	1.09456071341604	1.094560713416145	-0.006703506351883185	-0.1745238093127233	8.833026682957195e-06	0.08454867256173322	0.08802830125740634	0.06987424936919291	0.1842325000850701	-0.6164179716692889	-0.03009476564764919	-0.1601548475217233	-0.0001262387957002056	-0.491441412575319	-0.4914414125753147	-0.05078836198519256	6.603349643219418e-06	0.002104206652065645	-0.02809091277696093	-0.3843708958274162	-0.003525280630871199	-0.005396256825062003	-0.1374456531162726	0.1253465951527975	0.01265339744968213	0.2831662439119003	9.60034086552227	-3.784149695041711	-3.552388323491237	-9.16109134735207	-546.9329322591701	-63.78227141817295	-1.471214151421875	3.175393385017842	0.7892264495617498	1.808953062509119	-7.745342691220474	-0.2566434437741112	-1.287899692242371	-0.02081866515541187	-4.037413582925766	-4.037413582925714	-0.5051415909037731	-0.02384795952700169	0.2460861372956183	-0.1725469449812158	-8.980087968034004e-09	-1.195492541717771e-07	-1.438835547966832e-08	-4.511128401946326e-08	-3.891377070998341e-08	1.185318622705336e-07	-3.616050096427274e-08
